<svg xmlns="http://www.w3.org/2000/svg" xmlns:xlink="http://www.w3.org/1999/xlink" id="Слой_1" x="0" y="0" version="1.1" viewBox="0 0 50.9 63.8" xml:space="preserve" style="enable-background:new 0 0 50.9 63.8"><style type="text/css">.st0{fill:url(#SVGID_1_)}.st1{fill:url(#SVGID_2_)}.st2{fill:url(#SVGID_3_)}.st3{fill:url(#SVGID_4_)}.st4{fill:url(#SVGID_5_)}</style><switch><g><g><g><linearGradient id="SVGID_1_" x1="12.237" x2="12.237" y1="58.238" y2="4.117" gradientUnits="userSpaceOnUse"><stop offset="0" style="stop-color:#0ff"/><stop offset="1" style="stop-color:#00f"/><stop offset="1" style="stop-color:#00f"/></linearGradient><path d="M4.1,57.9c0.6-4.6,1.4-9.2,2.4-13.8c0.5-2.3,1-4.5,1.5-6.8l1.7-6.8l1.8-6.7c0.7-2.2,1.3-4.5,2-6.7 c0.7-2.2,1.4-4.4,2.2-6.6l0.6-1.6l0.1-0.4c0-0.1,0.2-0.3,0.2-0.5c0.2-0.3,0.4-0.5,0.6-0.8c1-0.8,2-1.3,3-1.9 c-0.8,0.8-1.7,1.6-2.4,2.5c-0.1,0.2-0.3,0.5-0.3,0.7c0,0.1-0.1,0.2-0.1,0.3l-0.1,0.4l-0.3,1.7c-0.4,2.3-0.8,4.6-1.3,6.9 c-0.4,2.3-1,4.5-1.5,6.8l-1.7,6.7L10.8,38c-0.7,2.2-1.3,4.5-2,6.7C7.4,49.1,5.9,53.5,4.1,57.9z" class="st0"/></g><g><linearGradient id="SVGID_2_" x1="29.374" x2="29.374" y1="58.557" y2="6.216" gradientUnits="userSpaceOnUse"><stop offset="0" style="stop-color:#0ff"/><stop offset="1" style="stop-color:#00f"/><stop offset="1" style="stop-color:#00f"/></linearGradient><path d="M41.7,58.2c-1.5-4-2.8-8.1-4.1-12.2c-1.2-4.1-2.4-8.2-3.5-12.4l-1.6-6.2l-1.5-6.2l-1.4-6.3L29,11.8 l-0.3-1.5c-0.1-0.4-0.2-0.7-0.5-0.9l-0.1-0.1c0.1,0.1,0.1,0.1,0.1,0.1l0,0l0,0l0,0l-0.1-0.1C28,9.1,28,9,27.9,9 c-0.2-0.1-0.3-0.2-0.5-0.2c-0.3-0.1-0.9-0.2-1.3-0.2c-1-0.1-2-0.1-3-0.2c-2,0-4-0.1-6-0.1c2-0.5,4-0.8,6-1.1 c1-0.1,2-0.3,3.1-0.3c1,0,2.3-0.1,3.6,1l-0.1-0.1c0.6,0.5,0.9,1.1,1.2,1.8l0.5,1.6l0.9,3.1l1.7,6.2l1.6,6.2l1.5,6.2 c1,4.2,1.9,8.4,2.7,12.6C40.4,49.7,41.1,53.9,41.7,58.2z" class="st1"/></g><g><linearGradient id="SVGID_3_" x1="33.169" x2="33.169" y1="53.3" y2="2.754" gradientUnits="userSpaceOnUse"><stop offset="0" style="stop-color:#0ff"/><stop offset="1" style="stop-color:#00f"/><stop offset="1" style="stop-color:#00f"/></linearGradient><path d="M46.2,52.9c-1.8-4.9-3.4-9.9-4.9-14.8c-0.8-2.5-1.4-5-2.2-7.5l-2-7.5l-2-7.5c-0.6-2.5-1.3-5-2-7.4l-0.1-0.4 c0-0.1-0.1-0.2-0.1-0.3c-0.1-0.2-0.3-0.4-0.4-0.6c-0.3-0.4-0.8-0.8-1.1-1.1c-0.9-0.6-2.1-0.7-3.4-0.8c-2.5-0.1-5.1,0.1-7.7,0.4 c2.5-0.9,5-1.5,7.7-1.8c0.7-0.1,1.3-0.1,2.1,0c0.7,0,1.5,0.2,2.2,0.5c0.8,0.4,1.3,0.8,1.9,1.4c0.3,0.3,0.5,0.6,0.7,0.9L35,6.9 l0.2,0.5c2,5,3.3,10,4.7,15c0.6,2.5,1.3,5,1.9,7.6c0.6,2.5,1.2,5.1,1.7,7.6C44.6,42.6,45.5,47.8,46.2,52.9z" class="st2"/></g><g><linearGradient id="SVGID_4_" x1="23.25" x2="23.25" y1="58.096" y2="18.239" gradientUnits="userSpaceOnUse"><stop offset="0" style="stop-color:#0ff"/><stop offset="1" style="stop-color:#00f"/><stop offset="1" style="stop-color:#00f"/></linearGradient><path d="M24,23c-0.2-0.5-0.3-1-0.5-1.5c-0.2-0.5-0.4-1-0.7-1.3c-0.2-0.4-0.7,0.8-0.9,1.7c-0.5,2-0.7,4-1,6.1 l-0.7,6.2l-0.4,3.1L19.8,39l-0.1,0.8c0,0.2,0,0.3,0,0.3c0,0-0.1-0.2-0.3-0.4c-0.2-0.1-0.1,0,0.1,0l1.6,0c1.1,0,2.2,0,3.3,0.1 l0.9,0.1c0.3,0,0.7,0.1,1.1,0.3c0.2,0.1,0.4,0.2,0.6,0.3c0.1,0.1,0.1,0.1,0.3,0.2c0.1,0.1,0.2,0.1,0.2,0.2 c0.3,0.3,0.5,0.6,0.7,0.9c0.4,0.8,0.5,1.3,0.6,1.9c0.1,0.5,0.2,1.1,0.3,1.6c0.6,4.2,1,8.4,1,12.7c-1.3-4.1-2.2-8.2-3.3-12.2 c-0.1-0.5-0.3-1-0.4-1.5c-0.1-0.5-0.3-1-0.4-1.1c-0.1-0.1-0.2-0.2-0.3-0.3c0,0-0.1,0-0.1,0c0.1,0.1,0,0,0,0c0,0-0.1,0-0.1-0.1 c-0.1,0-0.2-0.1-0.4-0.1l-0.7,0c-1,0-2,0-3,0l-1.6,0c-0.3,0-0.8,0-1.5-0.3c-0.7-0.4-1.1-1.1-1.2-1.6c-0.1-0.5-0.1-1,0-1.3 l0.1-0.8l0.2-1.6c0.1-1,0.3-2.1,0.5-3.1c0.4-2.1,0.7-4.2,1.2-6.2c0.5-2.1,1-4.1,1.9-6.2c0.2-0.5,0.5-1,0.9-1.5 c0.2-0.2,0.4-0.5,0.9-0.7c0.2-0.1,0.5-0.1,0.7,0.1c0.2,0.1,0.3,0.3,0.4,0.4c0.3,0.6,0.4,1.1,0.5,1.7C24,22,24,22.5,24,23z" class="st3"/></g><g><linearGradient id="SVGID_5_" x1="16.598" x2="16.598" y1="58.117" y2="48.532" gradientUnits="userSpaceOnUse"><stop offset="0" style="stop-color:#0ff"/><stop offset="1" style="stop-color:#00f"/><stop offset="1" style="stop-color:#00f"/></linearGradient><path d="M16.9,48.8c0.2,1.1,0.1,2.1,0.1,3.2c-0.1,1-0.2,2-0.3,3c-0.1,0.5-0.1,1-0.1,1.3l0,0.2c0,0,0,0,0,0 c0,0,0,0-0.1,0c0,0-0.1-0.1-0.1-0.1c-0.2-0.1-0.4,0-0.4,0c0,0,0.1,0,0.2,0c0.7-0.4,1.5-1.2,2.4-1.8c-0.1,0.6-0.3,1.1-0.5,1.6 c-0.2,0.5-0.5,1-1,1.5c-0.1,0.1-0.3,0.2-0.5,0.4c-0.1,0.1-0.3,0.1-0.5,0.1c-0.2,0-0.5,0-0.7-0.2c-0.1-0.1-0.2-0.1-0.3-0.2 c-0.1-0.1-0.1-0.1-0.2-0.2c-0.1-0.2-0.1-0.2-0.2-0.4c-0.1-0.2-0.1-0.4-0.2-0.6c-0.1-0.7-0.1-1.2,0-1.8c0.1-1.1,0.4-2.1,0.7-3.1 C15.8,50.6,16.2,49.7,16.9,48.8z" class="st4"/></g></g></g></switch></svg>